<svg xmlns="http://www.w3.org/2000/svg" viewBox="0 0 64 64" fill="none">
  <defs>
    <linearGradient id="g" x1="0" y1="0" x2="64" y2="64" gradientUnits="userSpaceOnUse">
      <stop offset="0%" stop-color="#3b82f6"/>
      <stop offset="60%" stop-color="#6366f1"/>
      <stop offset="100%" stop-color="#f97316"/>
    </linearGradient>
  </defs>
  <path d="M 35 58 Q 30 58 28 57 L 28 36 Q 28.5 32 31 29 Q 33 27 36 26 Q 42 24 50 22 Q 53 20.5 55 18 Q 57 15 56 11 Q 54.5 7.5 51.5 6 Q 48.5 5 46 6 Q 43 7.5 42 10 Q 41 14 41.5 17 Q 42 18.5 43.5 19 Q 43 20 42 20.5 Q 39 21 37.5 21 Q 36 20.5 35 17 Q 34.5 13 35 10 Q 36 7 37.5 5 Q 39.5 3 42 2 Q 45.5 1 50 2 Q 53.5 3 56 5 Q 58 7 59 10 Q 60 14.5 59 18 Q 57.5 22 55 24.5 Q 51.5 27.5 47 29 Q 42 31 39 31.5 Q 36 33 34.5 35 Q 33.5 37 33.5 39 L 33.5 57 Q 33.5 58 35 58 Z M 56 30 L 51 30 Q 49.5 28.5 49 27 Q 52 25.5 55 24.5 Q 58 27 59 29 Q 58 30 56 30 Z" fill="url(#g)" fill-rule="evenodd"/>
</svg>
