<svg xmlns="http://www.w3.org/2000/svg" viewBox="0 0 64 64" fill="none">
  <defs>
    <linearGradient id="g" x1="0" y1="0" x2="64" y2="64" gradientUnits="userSpaceOnUse">
      <stop offset="0%" stop-color="#3b82f6"/>
      <stop offset="55%" stop-color="#6366f1"/>
      <stop offset="100%" stop-color="#f97316"/>
    </linearGradient>
  </defs>
  <!-- "i" mark from interp logo, scaled to 64x64 -->
  <g transform="scale(0.2564) translate(-22, -8)">
    <path d="M 37.0 101.5 L 29.0 101.5 Q 27.5 101.5 27.5 100.0 L 27.5 68.0 Q 27.5 67.0 28.5 67.0 L 28.5 62.0 Q 29.0 56.0 32.5 53.0 Q 35.0 50.5 38.0 48.5 Q 48.0 44.5 59.0 42.5 Q 62.5 41.0 65.0 39.5 Q 68.0 37.0 69.5 35.0 Q 71.0 32.0 70.5 33.0 Q 71.5 28.0 69.5 25.0 Q 67.0 21.5 64.0 20.5 Q 61.0 19.5 59.0 20.5 Q 55.5 22.0 53.5 25.0 Q 52.0 29.0 52.5 35.0 Q 53.0 37.0 54.5 38.0 Q 54.0 39.0 53.0 39.5 Q 49.0 40.5 46.0 40.5 Q 43.5 39.5 42.5 35.0 Q 42.0 30.0 42.5 26.0 Q 43.5 22.0 45.5 19.0 Q 47.0 17.0 49.0 15.5 Q 52.0 13.0 56.0 11.5 Q 61.0 10.0 67.0 11.5 Q 71.0 13.0 74.0 15.5 Q 76.0 17.5 77.5 20.0 Q 79.5 24.0 80.5 28.0 Q 81.0 33.0 79.5 36.0 Q 78.0 39.5 76.5 42.0 Q 73.0 46.0 67.0 49.5 Q 62.0 52.0 57.0 53.5 Q 50.0 55.5 46.0 55.5 Q 42.0 57.0 39.5 61.0 Q 38.0 63.5 37.5 65.0 L 37.0 101.5 Z M 73.0 58.5 L 63.0 58.5 Q 61.0 57.5 60.5 55.0 Q 64.0 52.0 69.0 50.5 Q 74.0 54.0 77.5 57.0 Q 75.5 58.5 73.0 58.5 Z" fill="url(#g)" fill-rule="evenodd"/>
  </g>
</svg>
