<svg xmlns="http://www.w3.org/2000/svg" width="234" height="123" viewBox="0 0 234 123">
  <defs>
    <linearGradient id="g" x1="0" y1="0" x2="234" y2="123" gradientUnits="userSpaceOnUse">
      <stop offset="0%" stop-color="#3b82f6"/>
      <stop offset="55%" stop-color="#6366f1"/>
      <stop offset="100%" stop-color="#f97316"/>
    </linearGradient>
  </defs>
  <path d="M 37.0 101.5 L 29.0 101.5 Q 27.5 101.5 27.5 100.0 L 27.5 68.0 Q 27.5 67.0 28.5 67.0 L 28.5 62.0 Q 29.0 56.0 32.5 53.0 Q 35.0 50.5 38.0 48.5 Q 48.0 44.5 59.0 42.5 Q 62.5 41.0 65.0 39.5 Q 68.0 37.0 69.5 35.0 Q 71.0 32.0 70.5 33.0 Q 71.5 28.0 69.5 25.0 Q 67.0 21.5 64.0 20.5 Q 61.0 19.5 59.0 20.5 Q 55.5 22.0 53.5 25.0 Q 52.0 29.0 52.5 35.0 Q 53.0 37.0 54.5 38.0 Q 54.0 39.0 53.0 39.5 Q 49.0 40.5 46.0 40.5 Q 43.5 39.5 42.5 35.0 Q 42.0 30.0 42.5 26.0 Q 43.5 22.0 45.5 19.0 Q 47.0 17.0 49.0 15.5 Q 52.0 13.0 56.0 11.5 Q 61.0 10.0 67.0 11.5 Q 71.0 13.0 74.0 15.5 Q 76.0 17.5 77.5 20.0 Q 79.5 24.0 80.5 28.0 Q 81.0 33.0 79.5 36.0 Q 78.0 39.5 76.5 42.0 Q 73.0 46.0 67.0 49.5 Q 62.0 52.0 57.0 53.5 Q 50.0 55.5 46.0 55.5 Q 42.0 57.0 39.5 61.0 Q 38.0 63.5 37.5 65.0 L 37.0 101.5 Z M 73.0 58.5 L 63.0 58.5 Q 61.0 57.5 60.5 55.0 Q 64.0 52.0 69.0 50.5 Q 74.0 54.0 77.5 57.0 Q 75.5 58.5 73.0 58.5 Z M 109.0 102.5 L 99.0 102.5 Q 95.0 100.5 92.5 97.0 Q 91.5 95.5 91.5 94.0 L 91.5 76.0 Q 88.5 76.0 85.5 75.0 L 85.5 69.0 Q 86.0 68.0 87.0 67.5 Q 88.5 68.5 90.0 68.5 Q 91.0 68.0 91.5 67.0 L 91.5 61.0 Q 94.0 58.5 98.0 57.5 Q 100.0 57.5 101.5 58.0 L 101.5 67.0 Q 102.0 68.5 103.0 68.5 Q 103.5 68.0 104.0 67.5 Q 107.0 68.0 110.5 69.0 L 110.5 74.0 Q 110.0 75.5 109.0 75.5 L 101.5 76.0 L 101.5 92.0 Q 102.5 94.0 104.0 94.5 L 109.0 94.5 Q 110.5 95.0 110.5 96.0 L 110.5 101.0 Q 110.5 102.5 109.0 102.5 Z M 81.0 101.5 Q 77.0 101.5 72.5 101.0 L 72.5 80.0 Q 71.0 77.0 69.0 75.5 Q 66.5 74.5 64.0 75.5 Q 61.0 77.0 58.5 80.0 L 58.5 101.0 L 48.5 101.0 L 48.5 69.0 Q 49.0 68.0 50.0 67.5 Q 51.0 68.0 52.0 68.5 Q 55.0 68.0 57.0 67.5 Q 58.0 68.0 58.5 69.0 Q 58.5 70.5 59.0 72.5 Q 62.0 69.0 66.0 67.5 Q 70.0 67.0 75.0 67.5 Q 78.5 69.0 80.5 72.0 Q 82.5 76.5 82.5 81.0 L 82.5 100.0 Q 82.5 101.5 81.0 101.5 Z M 135.0 102.5 L 126.0 102.5 Q 122.0 101.5 119.0 99.5 Q 117.0 98.0 115.5 96.0 Q 113.5 93.0 112.5 90.0 Q 112.0 85.0 112.5 80.0 Q 113.0 77.0 114.5 75.0 Q 116.5 72.5 119.0 70.5 Q 122.0 68.5 126.0 67.5 Q 130.0 67.0 135.0 67.5 Q 137.5 68.0 140.0 69.5 Q 142.5 71.0 144.5 73.0 Q 146.5 76.0 147.5 79.0 Q 148.0 83.5 147.0 87.5 L 124.0 87.5 Q 123.0 88.5 122.5 89.0 Q 123.0 91.0 123.5 92.0 Q 125.5 94.5 128.0 95.5 Q 131.0 96.0 134.0 95.5 Q 136.0 94.5 137.0 92.5 Q 141.0 93.0 146.5 93.0 Q 146.0 95.0 145.5 96.0 Q 143.5 98.0 142.0 99.5 Q 139.0 101.5 135.0 102.5 Z M 162.0 101.5 Q 158.0 101.5 153.5 101.0 L 153.5 69.0 Q 154.0 68.0 155.0 67.5 L 162.0 67.5 Q 162.0 69.5 162.5 72.0 Q 163.0 72.5 164.0 72.5 Q 165.0 71.0 166.0 69.5 Q 168.0 68.0 170.0 67.5 L 174.0 67.5 Q 174.5 71.5 174.5 76.0 Q 172.0 76.5 169.0 76.5 Q 167.0 77.5 165.0 78.5 Q 164.0 80.0 163.5 81.0 L 163.5 100.0 Q 163.5 101.5 162.0 101.5 Z M 189.0 115.5 Q 184.5 115.5 179.5 115.0 L 179.5 69.0 Q 180.0 68.0 181.0 67.5 L 188.0 67.5 Q 188.5 69.5 189.5 71.0 Q 190.0 71.5 191.0 71.5 Q 192.5 70.0 194.0 68.5 Q 195.5 68.0 197.0 67.5 Q 202.5 67.5 208.0 68.5 Q 211.5 70.5 213.5 74.0 Q 215.5 77.5 215.5 79.0 Q 216.5 86.5 214.5 94.0 Q 212.5 97.5 210.0 99.5 Q 207.5 101.5 204.0 102.5 Q 200.5 103.0 197.0 102.5 Q 193.5 101.0 190.0 98.5 L 189.0 115.5 Z M 137.5 81.0 Q 137.5 79.0 136.5 77.0 Q 135.0 75.0 133.0 74.5 Q 129.5 74.5 126.0 75.5 Q 124.0 77.5 122.5 80.0 Q 123.0 81.0 124.0 81.5 L 137.5 81.0 Z M 200.5 94.0 Q 203.0 93.0 204.5 91.0 Q 206.5 87.0 205.5 81.0 Q 205.0 78.0 202.0 76.5 Q 199.0 75.5 195.0 75.5 Q 192.0 77.5 189.5 81.0 Q 189.0 86.0 189.5 89.0 Q 191.5 92.5 195.0 94.5 Q 198.0 95.0 200.5 94.0 Z" fill="url(#g)" fill-rule="evenodd"/>
</svg>
